pedal_clip_forces.mot
version=1
nRows=143
nColumns=4
inDegrees=yes
endheader
time	PedalClip_calcn_r_Fx	PedalClip_calcn_r_Fy	PedalClip_calcn_r_Fz
0.80511951	-34.0627962563408	46.1293410890088	0
0.80533694	-34.2569022345502	46.3411805888261	0
0.80564488	-34.4509617041308	46.5538923378657	0
0.80584942	-34.6449637649795	46.7673596451251	0
0.80616659	-34.838911610074	46.9814749831006	0
0.80621006	-35.0328183407049	47.1961421777019	0
0.80633159	-35.2267019110641	47.4112685653516	0
0.80661104	-35.4205774890853	47.6267670768163	0
0.80671985	-35.6144679232543	47.8425602509494	0
0.80693346	-35.8083976581445	48.0585731591851	0
0.80725401	-36.0023791595062	48.2747337754935	0
0.80745736	-36.1964104229621	48.4909718340082	0
0.80782332	-36.3905038044801	48.707220841515	0
0.80805263	-36.5846714959169	48.9234145062316	0
0.80828195	-36.77890925761	49.1394814400742	0
0.80851126	-36.9731798083887	49.3553401319168	0
0.80887463	-37.1674101758558	49.5709014951771	0
0.80924441	-37.361484102962	49.7860695136017	0
0.80928139	-37.555236605088	50.0007405155927	0
0.80933033	-37.7484870939216	50.2148121224447	0
0.80957506	-37.9410984922481	50.4282032981556	0
0.80978877	-38.1329848561709	50.6408612713994	0
0.81009893	-38.3241134649925	50.8527561161328	0
0.8101422	-38.5144938887394	51.0638745786146	0
0.81026154	-38.7041671751443	51.2742179207555	0
0.81053696	-38.8931745485194	51.4838043120596	0
0.81064632	-39.0815563974299	51.69266654471	0
0.81085855	-39.2693434328527	51.9008504894964	0
0.8111211	-39.4565605291017	52.1084231033962	0
0.81132011	-39.6432272789361	52.3154717665378	0
0.81167963	-39.8293468397908	52.5220914377247	0
0.81187788	-40.0149296001453	52.7283915144484	0
0.81211669	-40.2000001372973	52.9344900040434	0
0.81219995	-40.3845929593373	53.1404914879509	0
0.81240248	-40.5687459716989	53.3464917530132	0
0.81266002	-40.7525041082266	53.5525790592392	0
0.81271424	-40.9359117984955	53.7588203648043	0
0.81281891	-41.1190179524497	53.9652652872607	0
0.81311295	-41.301866543803	54.171942432535	0
0.81322916	-41.4844814515645	54.3788474012252	0
0.81344888	-41.6668653164149	54.5859543783876	0
0.81368957	-41.8490138036817	54.793226738855	0
0.81388706	-42.0309175535065	55.0006223363116	0
0.81414364	-42.2125740768464	55.208107289425	0
0.81434074	-42.3939843701583	55.4156630017873	0
0.81466144	-42.5751490929119	55.6232902003966	0
0.81469351	-42.7560786193434	55.8310066274684	0
0.81481721	-42.936786973182	56.0388308300532	0
0.81503787	-43.1172850755126	56.2467761587613	0
0.81511104	-43.2975740001257	56.4548477839717	0
0.81530657	-43.477646303006	56.663043060084	0
0.8156634	-43.6574947649843	56.871355203993	0
0.81569908	-43.8371132053328	57.079776182823	0
0.81581219	-44.0165012345682	57.2883002731534	0
0.81601399	-44.195657770606	57.4969254219878	0
0.81610195	-44.374576799763	57.7056489672403	0
0.81629626	-44.5532400322278	57.9144577018945	0
0.81655806	-44.731630932208	58.1233353223826	0
0.81661455	-44.909745726824	58.3322713486844	0
0.81671997	-45.0876001655538	58.5412615872567	0
0.81705693	-45.2652236162521	58.7503149982232	0
0.81720247	-45.4426507429335	58.9594565323253	0
0.8174114	-45.6199282540053	59.1687290145879	0
0.81762778	-45.7971140099514	59.3781943537717	0
0.81782272	-45.974274411852	59.5879277030645	0
0.81804173	-46.1514814030745	59.7980137807582	0
0.81823657	-46.3288198691979	60.0085487296441	0
0.81849052	-46.5063795226312	60.2196275298349	0
0.81868281	-46.6842458577231	60.4313372806252	0
0.8190347	-46.8624897216729	60.6437465401972	0
0.81906989	-47.041179531087	60.8569159140538	0
0.81916982	-47.2204234793316	61.0709507835103	0
0.81934778	-47.4003501134524	61.2859827693974	0
0.81943852	-47.5810829950828	61.5021382832767	0
0.81963634	-47.7627070052167	61.7195117985066	0
0.81988168	-47.9452797397687	61.9381542771114	0
0.81992896	-48.128839617232	62.158069768425	0
0.82002984	-48.3134147811281	62.3792371655604	0
0.82024978	-48.4990213273505	62.6016089174359	0
0.82032658	-48.6856684883483	62.8251296601442	0
0.82051569	-48.8733706655801	63.0497524760652	0
0.82086299	-49.0621551695384	63.2754546018459	0
0.82089772	-49.2520459378825	63.5022401708611	0
0.82099603	-49.443052579749	63.7301447273677	0
0.82117789	-49.6351587835686	63.9592379874685	0
0.82128045	-49.8283432272047	64.189637606792	0
0.82145917	-50.0225925218487	64.4215090204343	0
0.82170719	-50.2178995180878	64.6550503148759	0
0.82175638	-50.4142901220905	64.8904858332406	0
0.82185785	-50.6118336441508	65.1280485484735	0
0.82210566	-50.8106501578009	65.3679581625857	0
0.82218103	-51.0109035648342	65.61040659079	0
0.8223691	-51.2127819057559	65.85554808633	0
0.82257275	-51.4164696707678	66.1034980719989	0
0.82276406	-51.6221214333027	66.3543405421455	0
0.82297594	-51.8298379814211	66.6081341341675	0
0.82316589	-52.0396574920083	66.8649183496233	0
0.82340026	-52.2515439617726	67.124702484211	0
0.82358858	-52.4654227243746	67.3874840156678	0
0.82392744	-52.6812182417094	67.6532650749047	0
0.82409429	-52.8988717985246	67.9220545970733	0
0.82432312	-53.1183572965855	68.1938762237437	0
0.82440086	-53.3396829717847	68.4687665178907	0
0.82462718	-53.5628675660298	68.7467512496203	0
0.82481303	-53.7879426489115	69.0278472616138	0
0.82500974	-54.0149500620446	69.3120625720224	0
0.82519891	-54.2439315045865	69.5993881628608	0
0.82539769	-54.4749135165296	69.8897919189396	0
0.82558606	-54.7079010506048	70.1832130844315	0
0.82578754	-54.9428686600034	70.4795517501438	0
0.82597548	-55.1797559486101	70.7786691927338	0
0.82618357	-55.418480049277	71.0803981664316	0
0.82637081	-55.6589583381174	71.3845531589312	0
0.8265995	-55.9011300602979	71.6909457250497	0
0.82678512	-56.1449669520691	71.999396109998	0
0.82711776	-56.39046766831	72.309737262091	0
0.82731824	-56.6376397964224	72.6218122027937	0
0.82751873	-56.8864705381642	72.9354619741968	0
0.82782574	-57.1368935201209	73.250506596696	0
0.82857598	-57.3887820158021	73.5667281539706	0
0.82867605	-57.6419470511283	73.883868621173	0
0.8288302	-57.8961490704245	74.2016854481792	0
0.82908821	-58.151114059935	74.5199584339552	0
0.82913605	-58.4065382506018	74.838483633529	0
0.82923936	-58.6621123406985	75.1570781085946	0
0.82951727	-58.9175031324045	75.4755757491318	0
0.82962294	-59.1723872493059	75.7938310586083	0
0.82983673	-59.4265461874775	76.1117351217704	0
0.83001938	-59.6798468132042	76.4292093312808	0
0.83020402	-59.932207836103	76.7462008547626	0
0.83038807	-60.1835907839346	77.0626765405961	0
0.83057211	-60.4339858023319	77.3786277148405	0
0.83075581	-60.6834014080494	77.6940629166449	0
0.83093944	-60.9318963281736	78.0089955927327	0
0.83112277	-61.1795377812974	78.3234359909506	0
0.831306	-61.4263885129407	78.6373954716228	0
0.83148896	-61.6725019567717	78.9508899185401	0
0.83167179	-61.91794281892	79.2639546068037	0
0.83185438	-62.1627942684554	79.5766437540475	0
0.83203683	-62.4071478827246	79.8890101404652	0
0.83221906	-62.6510784206834	80.2010954436313	0
0.83240112	-62.8946442302699	80.5129296390276	0
0.83258299	-63.1378808777689	80.8245264766219	0
